<?xml version="1.0" standalone="no"?>
<!DOCTYPE svg PUBLIC "-//W3C//DTD SVG 20010904//EN" "http://www.w3.org/TR/2001/REC-SVG-20010904/DTD/svg10.dtd">
<svg version="1.0" xmlns="http://www.w3.org/2000/svg"  viewBox="0 0 1954.000000 475.000000" preserveAspectRatio="xMidYMid meet">
	<g transform="translate(0.000000,475.000000) scale(0.100000,-0.100000)" fill="#0" stroke="none">
		<path d="M382 4229 c-59 -11 -62 -15 -62 -63 0 -54 15 -68 140 -132 67 -34
113 -67 155 -109 56 -56 64 -71 132 -235 39 -96 115 -278 168 -405 54 -126
150 -356 215 -510 65 -154 159 -379 210 -500 51 -121 139 -330 195 -465 370
-887 555 -1317 572 -1332 13 -10 100 -14 402 -16 212 -2 401 0 419 3 41 8 61
38 132 205 29 69 98 226 153 350 54 124 130 297 167 385 38 88 100 231 139
318 39 87 96 215 125 285 30 70 82 190 116 267 34 77 106 241 160 365 383 882
518 1181 555 1232 45 62 113 111 199 145 38 15 85 42 103 59 31 29 34 37 31
80 -5 80 11 78 -657 82 -687 4 -711 1 -711 -82 0 -37 37 -77 113 -120 102 -58
157 -134 157 -216 0 -36 -5 -47 -370 -980 -66 -168 -183 -467 -260 -665 -321
-820 -375 -954 -382 -947 -4 4 -45 115 -93 247 -92 259 -262 730 -466 1295
-350 970 -349 968 -349 1033 1 106 39 161 178 256 67 45 82 65 82 108 0 41
-13 54 -61 64 -57 11 -1551 9 -1607 -2z" />
		<path d="M7304 4216 c-245 -95 -628 -330 -762 -468 -61 -63 -54 -83 48 -138
106 -57 181 -125 211 -192 l24 -53 3 -1217 c2 -1211 2 -1217 -19 -1272 -24
-66 -80 -125 -189 -201 -41 -30 -84 -63 -94 -74 -24 -27 -32 -91 -13 -116 15
-20 29 -20 609 -23 326 -1 603 0 615 3 55 13 84 93 46 128 -10 8 -49 30 -88
47 -144 66 -214 141 -241 259 -9 35 -14 121 -14 236 l0 180 212 264 c238 297
212 281 270 166 17 -33 63 -119 103 -190 73 -130 231 -420 412 -755 122 -226
169 -297 207 -318 27 -15 69 -17 361 -17 348 0 411 6 454 46 25 24 30 99 6
119 -8 6 -48 24 -90 40 -100 37 -178 85 -224 136 -20 23 -87 138 -150 255 -63
118 -162 304 -221 414 -59 110 -131 245 -160 300 -29 55 -100 187 -157 293
l-105 193 43 57 c23 31 86 100 139 153 93 92 105 100 261 179 221 112 239 124
239 158 0 15 -5 33 -12 40 -9 9 -143 12 -542 12 -292 0 -541 -3 -553 -6 -16
-4 -23 -14 -23 -31 0 -28 26 -54 85 -84 94 -49 155 -139 139 -205 -8 -31 -14
-38 -398 -453 l-291 -314 -3 1237 -2 1236 -38 0 c-20 -1 -64 -12 -98 -24z" />
		<path d="M16970 4206 c-265 -117 -612 -337 -737 -469 -35 -36 -63 -69 -63 -74
1 -19 18 -33 81 -63 101 -48 178 -115 214 -185 l30 -59 0 -1215 0 -1216 -22
-47 c-29 -62 -91 -128 -182 -193 -107 -75 -116 -87 -116 -150 0 -29 4 -57 8
-62 5 -4 270 -9 588 -11 510 -2 584 -1 613 13 45 22 62 55 50 102 -8 32 -17
40 -93 79 -104 52 -173 119 -204 194 -22 55 -22 58 -22 635 0 525 2 587 18
650 24 93 86 219 135 276 102 115 291 156 421 89 99 -50 175 -148 248 -318
125 -291 210 -629 269 -1072 38 -291 25 -335 -131 -441 -90 -60 -105 -78 -105
-124 0 -30 6 -47 21 -61 20 -18 46 -19 646 -19 l625 0 20 25 c38 47 -2 131
-80 171 -55 28 -178 128 -204 165 -65 94 -123 287 -213 703 -93 431 -192 743
-312 982 -67 136 -95 179 -147 236 -129 140 -310 194 -541 164 -179 -24 -274
-75 -506 -272 l-164 -138 -3 870 -2 869 -33 0 c-17 0 -66 -15 -107 -34z" />
		<path d="M5455 3997 c-65 -17 -202 -76 -272 -119 -68 -41 -163 -131 -189 -178
-26 -50 -26 -153 2 -200 31 -53 63 -65 184 -64 123 1 199 18 299 69 123 62
226 155 268 244 22 45 24 62 19 108 -13 112 -52 145 -181 149 -44 2 -102 -2
-130 -9z" />
		<path d="M10943 2930 c-187 -18 -379 -83 -552 -185 -171 -102 -311 -248 -311
-325 0 -40 11 -50 54 -50 13 0 67 31 122 69 218 151 398 210 599 198 233 -14
361 -111 480 -364 33 -67 120 -371 110 -381 -2 -2 -44 3 -92 12 -220 40 -632
7 -872 -70 -108 -35 -304 -135 -386 -196 -186 -141 -272 -423 -220 -724 23
-132 59 -197 159 -291 134 -125 234 -176 413 -212 331 -66 777 -9 1068 136 81
41 177 107 219 152 17 17 33 31 36 31 3 0 32 -30 64 -67 74 -86 144 -144 226
-187 80 -42 149 -60 313 -80 143 -19 245 -11 361 24 73 23 155 89 185 149 22
43 36 127 23 135 -6 3 -27 -1 -48 -10 -55 -23 -165 -16 -229 16 -27 13 -72 46
-98 72 -96 96 -188 343 -311 833 -90 361 -124 463 -222 663 -136 276 -266 447
-408 531 -163 97 -432 145 -683 121z m560 -1317 c38 -103 93 -286 127 -418 11
-43 36 -107 55 -143 l36 -64 -57 -69 c-135 -168 -283 -239 -494 -239 -88 0
-118 5 -185 28 -181 61 -326 174 -386 300 -54 113 -53 290 3 409 84 181 353
289 719 292 l147 1 35 -97z" />
		<path d="M5635 2881 c-315 -120 -559 -234 -712 -333 -111 -72 -120 -94 -50
-127 23 -11 55 -23 71 -27 51 -12 147 -76 172 -113 43 -66 45 -103 42 -767
l-3 -629 -24 -53 c-27 -60 -80 -108 -186 -170 -101 -58 -115 -74 -115 -128 0
-77 -18 -75 649 -72 532 3 579 4 604 21 21 13 27 26 27 52 0 39 -18 55 -139
125 -99 57 -154 109 -182 173 l-24 52 -3 1018 c-2 795 -5 1017 -15 1017 -6 0
-57 -18 -112 -39z" />
		<path d="M14078 2909 c-184 -27 -390 -136 -477 -252 -87 -117 -115 -209 -115
-387 0 -104 4 -136 23 -189 44 -126 108 -201 255 -296 181 -118 351 -197 666
-309 258 -92 281 -101 404 -165 188 -97 260 -183 259 -312 0 -145 -109 -252
-308 -304 -79 -20 -286 -20 -396 1 -118 22 -179 40 -299 91 -232 99 -396 205
-635 412 l-110 95 -3 -37 c-9 -100 309 -749 427 -874 12 -12 27 -20 34 -17 8
3 42 37 77 76 108 120 158 129 371 67 239 -70 542 -101 771 -81 163 14 265 40
384 96 214 101 307 197 360 371 26 83 26 303 0 395 -52 190 -173 313 -476 485
-125 71 -235 115 -512 208 -528 177 -661 267 -662 447 0 107 45 167 167 220
197 87 508 55 779 -81 150 -75 263 -155 473 -333 53 -45 99 -76 112 -76 l23 0
-25 65 c-73 195 -351 685 -388 685 -7 0 -41 -29 -76 -65 -80 -81 -124 -99
-223 -93 -58 4 -94 14 -178 51 -220 95 -493 137 -702 106z" />
	</g>
</svg>
